<svg width="24" height="24" viewBox="0 0 24 24" fill="none" xmlns="http://www.w3.org/2000/svg">
<path d="M12 0.375C5.57812 0.375 0.375 5.57812 0.375 12C0.375 18.4219 5.57812 23.625 12 23.625C18.4219 23.625 23.625 18.4219 23.625 12C23.625 5.57812 18.4219 0.375 12 0.375ZM18.75 13.3125C18.75 13.6406 18.4688 13.875 18.1875 13.875H13.875V18.1875C13.875 18.5156 13.5938 18.75 13.3125 18.75H10.6875C10.3594 18.75 10.125 18.5156 10.125 18.1875V13.875H5.8125C5.48438 13.875 5.25 13.6406 5.25 13.3125V10.6875C5.25 10.4062 5.48438 10.125 5.8125 10.125H10.125V5.8125C10.125 5.53125 10.3594 5.25 10.6875 5.25H13.3125C13.5938 5.25 13.875 5.53125 13.875 5.8125V10.125H18.1875C18.4688 10.125 18.75 10.4062 18.75 10.6875V13.3125Z" fill="FILL_REPLACE"/>
</svg>
